<svg width="44" height="16" viewBox="0 0 44 16" fill="none"
  xmlns="http://www.w3.org/2000/svg">
  <mask id="path-1-inside-1_14700_1586" fill="white">
    <path d="M0.810536 16L0.810954 0.599999H10.821L10.8209 3.713H3.92387L3.92379 6.672H10.0618L10.0617 9.785H3.92371L3.92362 12.887H10.8206L10.8205 16H0.810536ZM2.06457 14.746H9.76457L9.76459 14.064H2.73559L2.73574 8.564H8.99474L8.99476 7.882H2.73576L2.7359 2.459H9.7649L9.76492 1.788H2.06492L2.06457 14.746ZM15.5464 14.834H16.2284L16.2288 2.547H18.7698L22.7734 14.79H26.5134L26.5138 1.788H25.8428L25.8425 14.086H23.3015L19.2978 1.832H15.5468L15.5464 14.834ZM14.3474 16L14.3478 0.599999H20.3208L24.1265 12.843H24.5995L24.5998 0.599999H27.7128L27.7124 16H21.7394L17.9117 3.724H17.4607L17.4604 16H14.3474ZM33.9367 16L31.6708 13.734L31.671 2.866L33.9371 0.599999H40.9331L43.199 2.866L43.199 5.638H40.097L40.097 4.384L39.426 3.713H35.433L34.773 4.406L34.7728 12.227L35.4328 12.887H39.4258L40.0968 12.216L40.0968 10.698H37.0498L37.0499 7.596H43.1989L43.1988 13.734L40.9327 16H33.9367ZM34.5747 14.746H40.3167L41.9888 13.074L41.9889 8.839H38.2709L38.2709 9.51H41.3069L41.3068 12.788L40.0087 14.064H34.8717L33.5738 12.788L33.574 3.746L34.8721 2.459H40.0091L41.307 3.746L41.307 4.494H41.989L41.989 3.449L40.3171 1.788H34.5751L32.903 3.449L32.9028 13.074L34.5747 14.746Z"/>
  </mask>
  <path d="M0.810536 16L0.810954 0.599999H10.821L10.8209 3.713H3.92387L3.92379 6.672H10.0618L10.0617 9.785H3.92371L3.92362 12.887H10.8206L10.8205 16H0.810536ZM2.06457 14.746H9.76457L9.76459 14.064H2.73559L2.73574 8.564H8.99474L8.99476 7.882H2.73576L2.7359 2.459H9.7649L9.76492 1.788H2.06492L2.06457 14.746ZM15.5464 14.834H16.2284L16.2288 2.547H18.7698L22.7734 14.79H26.5134L26.5138 1.788H25.8428L25.8425 14.086H23.3015L19.2978 1.832H15.5468L15.5464 14.834ZM14.3474 16L14.3478 0.599999H20.3208L24.1265 12.843H24.5995L24.5998 0.599999H27.7128L27.7124 16H21.7394L17.9117 3.724H17.4607L17.4604 16H14.3474ZM33.9367 16L31.6708 13.734L31.671 2.866L33.9371 0.599999H40.9331L43.199 2.866L43.199 5.638H40.097L40.097 4.384L39.426 3.713H35.433L34.773 4.406L34.7728 12.227L35.4328 12.887H39.4258L40.0968 12.216L40.0968 10.698H37.0498L37.0499 7.596H43.1989L43.1988 13.734L40.9327 16H33.9367ZM34.5747 14.746H40.3167L41.9888 13.074L41.9889 8.839H38.2709L38.2709 9.51H41.3069L41.3068 12.788L40.0087 14.064H34.8717L33.5738 12.788L33.574 3.746L34.8721 2.459H40.0091L41.307 3.746L41.307 4.494H41.989L41.989 3.449L40.3171 1.788H34.5751L32.903 3.449L32.9028 13.074L34.5747 14.746Z" fill="white"/>
  <path d="M0.810537 16H-0.189463L-0.189491 17H0.810509L0.810537 16ZM0.810954 0.599999L0.810981 -0.400001H-0.189019L-0.189046 0.599999H0.810954ZM10.821 0.599999H11.821L11.821 -0.400001H10.821L10.821 0.599999ZM10.8209 3.713L10.8208 4.713H11.8208L11.8209 3.713H10.8209ZM3.92387 3.713L3.9239 2.713H2.9239L2.92387 3.713H3.92387ZM3.92379 6.672H2.92379L2.92376 7.672H3.92376L3.92379 6.672ZM10.0618 6.672H11.0618L11.0618 5.672H10.0618L10.0618 6.672ZM10.0617 9.785L10.0617 10.785H11.0617L11.0617 9.785H10.0617ZM3.92371 9.785L3.92373 8.785H2.92373L2.92371 9.785H3.92371ZM3.92362 12.887H2.92362L2.92359 13.887H3.92359L3.92362 12.887ZM10.8206 12.887H11.8206L11.8206 11.887H10.8206L10.8206 12.887ZM10.8205 16L10.8205 17H11.8205L11.8205 16H10.8205ZM2.06457 14.746H1.06457L1.06454 15.746H2.06454L2.06457 14.746ZM9.76457 14.746L9.76454 15.746H10.7645L10.7646 14.746H9.76457ZM9.76459 14.064H10.7646L10.7646 13.064H9.76462L9.76459 14.064ZM2.73559 14.064H1.73559L1.73556 15.064H2.73556L2.73559 14.064ZM2.73574 8.564L2.73577 7.564H1.73577L1.73574 8.564H2.73574ZM8.99474 8.564L8.99471 9.564H9.99471L9.99474 8.564H8.99474ZM8.99476 7.882H9.99476L9.99478 6.882H8.99478L8.99476 7.882ZM2.73576 7.882H1.73576L1.73573 8.882H2.73573L2.73576 7.882ZM2.7359 2.459L2.73593 1.459H1.73593L1.7359 2.459H2.7359ZM9.7649 2.459L9.76488 3.459H10.7649L10.7649 2.459H9.7649ZM9.76492 1.788H10.7649L10.7649 0.787999H9.76495L9.76492 1.788ZM2.06492 1.788L2.06495 0.787999H1.06495L1.06492 1.788H2.06492ZM1.81054 16L1.81095 0.599999H-0.189046L-0.189463 16H1.81054ZM0.810927 1.6H10.8209L10.821 -0.400001H0.810981L0.810927 1.6ZM9.82095 0.599999L9.82087 3.713H11.8209L11.821 0.599999H9.82095ZM10.8209 2.713H3.9239L3.92384 4.713H10.8208L10.8209 2.713ZM2.92387 3.713L2.92379 6.672H4.92379L4.92387 3.713H2.92387ZM3.92376 7.672H10.0618L10.0618 5.672H3.92382L3.92376 7.672ZM9.06179 6.672L9.06171 9.785H11.0617L11.0618 6.672H9.06179ZM10.0617 8.785H3.92373L3.92368 10.785H10.0617L10.0617 8.785ZM2.92371 9.785L2.92362 12.887H4.92362L4.9237 9.785H2.92371ZM3.92359 13.887H10.8206L10.8206 11.887H3.92365L3.92359 13.887ZM9.82062 12.887L9.82054 16H11.8205L11.8206 12.887H9.82062ZM10.8206 15H0.810564L0.810509 17H10.8205L10.8206 15ZM2.06454 15.746H9.76454L9.7646 13.746H2.0646L2.06454 15.746ZM10.7646 14.746L10.7646 14.064H8.76459L8.76457 14.746H10.7646ZM9.76462 13.064H2.73562L2.73556 15.064H9.76456L9.76462 13.064ZM3.73559 14.064L3.73574 8.564H1.73574L1.73559 14.064H3.73559ZM2.73571 9.564H8.99471L8.99477 7.564H2.73577L2.73571 9.564ZM9.99474 8.564L9.99476 7.882H7.99476L7.99474 8.564H9.99474ZM8.99478 6.882H2.73578L2.73573 8.882H8.99473L8.99478 6.882ZM3.73576 7.882L3.7359 2.459H1.7359L1.73576 7.882H3.73576ZM2.73588 3.459H9.76488L9.76493 1.459H2.73593L2.73588 3.459ZM10.7649 2.459L10.7649 1.788H8.76492L8.7649 2.459H10.7649ZM9.76495 0.787999H2.06495L2.06489 2.788H9.76489L9.76495 0.787999ZM1.06492 1.788L1.06457 14.746H3.06457L3.06492 1.788H1.06492ZM15.5464 14.834H14.5464L14.5464 15.834H15.5464L15.5464 14.834ZM16.2284 14.834L16.2284 15.834H17.2284L17.2284 14.834H16.2284ZM16.2288 2.547L16.2288 1.547H15.2288L15.2288 2.547H16.2288ZM18.7698 2.547L19.7202 2.23616L19.4949 1.547H18.7698L18.7698 2.547ZM22.7734 14.79L21.823 15.1008L22.0483 15.79H22.7734L22.7734 14.79ZM26.5134 14.79L26.5134 15.79H27.5134L27.5134 14.79H26.5134ZM26.5138 1.788H27.5138L27.5138 0.787999H26.5138L26.5138 1.788ZM25.8428 1.788L25.8428 0.787999H24.8428L24.8428 1.788H25.8428ZM25.8425 14.086L25.8424 15.086H26.8424L26.8425 14.086H25.8425ZM23.3015 14.086L22.3509 14.3966L22.5762 15.086H23.3014L23.3015 14.086ZM19.2978 1.832L20.2483 1.52141L20.0231 0.831999H19.2978L19.2978 1.832ZM15.5468 1.832L15.5468 0.831999H14.5468L14.5468 1.832H15.5468ZM14.3474 16H13.3474L13.3474 17H14.3474L14.3474 16ZM14.3478 0.599999L14.3479 -0.400001H13.3479L13.3478 0.599999H14.3478ZM20.3208 0.599999L21.2758 0.303141L21.0572 -0.400001H20.3209L20.3208 0.599999ZM24.1265 12.843L23.1716 13.1399L23.3901 13.843H24.1265L24.1265 12.843ZM24.5995 12.843L24.5995 13.843H25.5995L25.5995 12.843H24.5995ZM24.5998 0.599999L24.5999 -0.400001H23.5999L23.5998 0.599999H24.5998ZM27.7128 0.599999H28.7128L28.7129 -0.400001H27.7129L27.7128 0.599999ZM27.7124 16L27.7124 17H28.7124L28.7124 16H27.7124ZM21.7394 16L20.7847 16.2977L21.0037 17H21.7394L21.7394 16ZM17.9117 3.724L18.8664 3.42631L18.6474 2.724H17.9118L17.9117 3.724ZM17.4607 3.724L17.4608 2.724H16.4608L16.4607 3.724H17.4607ZM17.4604 16L17.4604 17H18.4604L18.4604 16H17.4604ZM15.5464 15.834H16.2284L16.2285 13.834H15.5465L15.5464 15.834ZM17.2284 14.834L17.2288 2.547H15.2288L15.2284 14.834H17.2284ZM16.2287 3.547H18.7697L18.7698 1.547H16.2288L16.2287 3.547ZM17.8193 2.85784L21.823 15.1008L23.7239 14.4792L19.7202 2.23616L17.8193 2.85784ZM22.7734 15.79H26.5134L26.5135 13.79H22.7735L22.7734 15.79ZM27.5134 14.79L27.5138 1.788H25.5138L25.5134 14.79H27.5134ZM26.5138 0.787999H25.8428L25.8428 2.788H26.5138L26.5138 0.787999ZM24.8428 1.788L24.8425 14.086H26.8425L26.8428 1.788H24.8428ZM25.8425 13.086H23.3015L23.3014 15.086H25.8424L25.8425 13.086ZM24.252 13.7754L20.2483 1.52141L18.3472 2.14259L22.3509 14.3966L24.252 13.7754ZM19.2978 0.831999H15.5468L15.5468 2.832H19.2978L19.2978 0.831999ZM14.5468 1.832L14.5464 14.834H16.5464L16.5468 1.832H14.5468ZM15.3474 16L15.3478 0.599999H13.3478L13.3474 16H15.3474ZM14.3478 1.6H20.3208L20.3209 -0.400001H14.3479L14.3478 1.6ZM19.3659 0.896857L23.1716 13.1399L25.0814 12.5461L21.2758 0.303141L19.3659 0.896857ZM24.1265 13.843H24.5995L24.5995 11.843H24.1265L24.1265 13.843ZM25.5995 12.843L25.5998 0.599999H23.5998L23.5995 12.843H25.5995ZM24.5998 1.6H27.7128L27.7129 -0.400001H24.5999L24.5998 1.6ZM26.7128 0.599999L26.7124 16H28.7124L28.7128 0.599999H26.7128ZM27.7124 15H21.7394L21.7394 17H27.7124L27.7124 15ZM22.6941 15.7023L18.8664 3.42631L16.9571 4.02169L20.7847 16.2977L22.6941 15.7023ZM17.9118 2.724H17.4608L17.4607 4.724H17.9117L17.9118 2.724ZM16.4607 3.724L16.4604 16H18.4604L18.4607 3.724H16.4607ZM17.4604 15H14.3474L14.3474 17H17.4604L17.4604 15ZM33.9367 16L33.2296 16.7071L33.5225 17H33.9367L33.9367 16ZM31.6708 13.734H30.6708L30.6707 14.1482L30.9636 14.4411L31.6708 13.734ZM31.671 2.866L30.964 2.15889L30.6711 2.45179L30.671 2.866H31.671ZM33.9371 0.599999L33.9371 -0.400001H33.5229L33.23 -0.107108L33.9371 0.599999ZM40.9331 0.599999L41.6402 -0.107108L41.3474 -0.400001H40.9331L40.9331 0.599999ZM43.1991 2.866H44.1991L44.1991 2.45179L43.9062 2.15889L43.1991 2.866ZM43.199 5.638L43.1989 6.638H44.1989L44.199 5.638H43.199ZM40.097 5.638H39.097L39.0969 6.638H40.0969L40.097 5.638ZM40.097 4.384H41.097L41.097 3.96979L40.8041 3.67689L40.097 4.384ZM39.426 3.713L40.1332 3.00589L39.8403 2.713H39.4261L39.426 3.713ZM35.433 3.713L35.4331 2.713H35.0045L34.7089 3.02334L35.433 3.713ZM34.773 4.406L34.0489 3.71634L33.773 4.006L33.773 4.406H34.773ZM34.7728 12.227H33.7728L33.7728 12.6412L34.0657 12.9341L34.7728 12.227ZM35.4328 12.887L34.7256 13.5941L35.0185 13.887H35.4327L35.4328 12.887ZM39.4258 12.887L39.4257 13.887H39.84L40.1329 13.5941L39.4258 12.887ZM40.0968 12.216L40.8039 12.9231L41.0968 12.6302L41.0968 12.216H40.0968ZM40.0968 10.698H41.0968L41.0969 9.698H40.0969L40.0968 10.698ZM37.0498 10.698H36.0498L36.0498 11.698H37.0498L37.0498 10.698ZM37.0499 7.596L37.0499 6.596H36.0499L36.0499 7.596H37.0499ZM43.1989 7.596H44.1989L44.1989 6.596H43.1989L43.1989 7.596ZM43.1988 13.734L43.9058 14.4411L44.1987 14.1482L44.1988 13.734H43.1988ZM40.9327 16L40.9327 17H41.3469L41.6398 16.7071L40.9327 16ZM34.5747 14.746L33.8676 15.4531L34.1605 15.746H34.5747L34.5747 14.746ZM40.3167 14.746L40.3167 15.746H40.7309L41.0238 15.4531L40.3167 14.746ZM41.9888 13.074L42.6959 13.7811L42.9888 13.4882L42.9888 13.074H41.9888ZM41.9889 8.839H42.9889L42.9889 7.839H41.9889L41.9889 8.839ZM38.2709 8.839L38.2709 7.839H37.2709L37.2709 8.839H38.2709ZM38.2709 9.51H37.2709L37.2708 10.51H38.2708L38.2709 9.51ZM41.3069 9.51H42.3069L42.3069 8.51H41.3069L41.3069 9.51ZM41.3068 12.788L42.0078 13.5011L42.3068 13.2072L42.3068 12.788H41.3068ZM40.0087 14.064L40.0087 15.064H40.4179L40.7098 14.7771L40.0087 14.064ZM34.8717 14.064L34.1707 14.7771L34.4625 15.064H34.8717L34.8717 14.064ZM33.5738 12.788H32.5738L32.5738 13.2072L32.8727 13.5011L33.5738 12.788ZM33.574 3.746L32.87 3.03589L32.574 3.32929L32.574 3.746H33.574ZM34.8721 2.459L34.8721 1.459H34.4604L34.168 1.74889L34.8721 2.459ZM40.0091 2.459L40.7132 1.74889L40.4208 1.459H40.0091L40.0091 2.459ZM41.307 3.746H42.307L42.307 3.32929L42.0111 3.03589L41.307 3.746ZM41.307 4.494H40.307L40.307 5.494H41.307L41.307 4.494ZM41.989 4.494L41.989 5.494H42.989L42.989 4.494H41.989ZM41.989 3.449H42.989L42.989 3.03285L42.6938 2.73956L41.989 3.449ZM40.3171 1.788L41.0219 1.07856L40.7294 0.787999H40.3171L40.3171 1.788ZM34.5751 1.788L34.5751 0.787999H34.1628L33.8703 1.07856L34.5751 1.788ZM32.903 3.449L32.1983 2.73956L31.903 3.03285L31.903 3.449H32.903ZM32.9028 13.074H31.9028L31.9028 13.4882L32.1956 13.7811L32.9028 13.074ZM34.6438 15.2929L32.3779 13.0269L30.9636 14.4411L33.2296 16.7071L34.6438 15.2929ZM32.6708 13.734L32.671 2.866H30.671L30.6708 13.734H32.6708ZM32.3781 3.57311L34.6442 1.30711L33.23 -0.107108L30.964 2.15889L32.3781 3.57311ZM33.9371 1.6H40.9331L40.9331 -0.400001H33.9371L33.9371 1.6ZM40.226 1.30711L42.4919 3.57311L43.9062 2.15889L41.6402 -0.107108L40.226 1.30711ZM42.1991 2.866L42.199 5.638H44.199L44.1991 2.866H42.1991ZM43.199 4.638H40.097L40.0969 6.638H43.1989L43.199 4.638ZM41.097 5.638L41.097 4.384H39.097L39.097 5.638H41.097ZM40.8041 3.67689L40.1332 3.00589L38.7189 4.4201L39.3899 5.09111L40.8041 3.67689ZM39.4261 2.713H35.4331L35.433 4.713H39.426L39.4261 2.713ZM34.7089 3.02334L34.0489 3.71634L35.4971 5.09565L36.1571 4.40265L34.7089 3.02334ZM33.773 4.406L33.7728 12.227H35.7728L35.773 4.406H33.773ZM34.0657 12.9341L34.7256 13.5941L36.1399 12.1799L35.4799 11.5199L34.0657 12.9341ZM35.4327 13.887H39.4257L39.4258 11.887H35.4328L35.4327 13.887ZM40.1329 13.5941L40.8039 12.9231L39.3897 11.5089L38.7187 12.1799L40.1329 13.5941ZM41.0968 12.216L41.0968 10.698H39.0968L39.0968 12.216H41.0968ZM40.0969 9.698H37.0499L37.0498 11.698H40.0968L40.0969 9.698ZM38.0498 10.698L38.0499 7.596H36.0499L36.0498 10.698H38.0498ZM37.0499 8.596H43.1989L43.1989 6.596H37.0499L37.0499 8.596ZM42.1989 7.596L42.1988 13.734H44.1988L44.1989 7.596H42.1989ZM42.4917 13.0269L40.2256 15.2929L41.6398 16.7071L43.9058 14.4411L42.4917 13.0269ZM40.9327 15H33.9367L33.9367 17H40.9327L40.9327 15ZM34.5747 15.746H40.3167L40.3168 13.746H34.5748L34.5747 15.746ZM41.0238 15.4531L42.6959 13.7811L41.2817 12.3669L39.6096 14.0389L41.0238 15.4531ZM42.9888 13.074L42.9889 8.839H40.9889L40.9888 13.074H42.9888ZM41.9889 7.839H38.2709L38.2709 9.839H41.9889L41.9889 7.839ZM37.2709 8.839L37.2709 9.51H39.2709L39.2709 8.839H37.2709ZM38.2708 10.51H41.3068L41.3069 8.51H38.2709L38.2708 10.51ZM40.3069 9.51L40.3068 12.788H42.3068L42.3069 9.51H40.3069ZM40.6058 12.0749L39.3077 13.3509L40.7098 14.7771L42.0078 13.5011L40.6058 12.0749ZM40.0088 13.064H34.8718L34.8717 15.064H40.0087L40.0088 13.064ZM35.5728 13.3509L34.2748 12.0749L32.8727 13.5011L34.1707 14.7771L35.5728 13.3509ZM34.5738 12.788L34.574 3.746H32.574L32.5738 12.788H34.5738ZM34.2781 4.45611L35.5761 3.16911L34.168 1.74889L32.87 3.03589L34.2781 4.45611ZM34.872 3.459H40.009L40.0091 1.459H34.8721L34.872 3.459ZM39.3049 3.16911L40.6029 4.45611L42.0111 3.03589L40.7132 1.74889L39.3049 3.16911ZM40.307 3.746L40.307 4.494H42.307L42.307 3.746H40.307ZM41.307 5.494H41.989L41.989 3.494H41.307L41.307 5.494ZM42.989 4.494L42.989 3.449H40.989L40.989 4.494H42.989ZM42.6938 2.73956L41.0219 1.07856L39.6123 2.49744L41.2842 4.15844L42.6938 2.73956ZM40.3171 0.787999H34.5751L34.575 2.788H40.317L40.3171 0.787999ZM33.8703 1.07856L32.1983 2.73956L33.6078 4.15844L35.2798 2.49744L33.8703 1.07856ZM31.903 3.449L31.9028 13.074H33.9028L33.903 3.449H31.903ZM32.1956 13.7811L33.8676 15.4531L35.2819 14.0389L33.6099 12.3669L32.1956 13.7811Z" fill="black" mask="url(#path-1-inside-1_14700_1586)"/>
</svg>
